<?xml version="1.0" encoding="UTF-8"?>
<!DOCTYPE svg PUBLIC "-//W3C//DTD SVG 1.1//EN" "http://www.w3.org/Graphics/SVG/1.1/DTD/svg11.dtd">
<svg xmlns="http://www.w3.org/2000/svg" version="1.1" width="266px" height="83px" style="shape-rendering:geometricPrecision; text-rendering:geometricPrecision; image-rendering:optimizeQuality; fill-rule:evenodd; clip-rule:evenodd" xmlns:xlink="http://www.w3.org/1999/xlink">
<g><path style="opacity:1" fill="#fefefe" d="M -0.5,-0.5 C 88.1667,-0.5 176.833,-0.5 265.5,-0.5C 265.5,27.1667 265.5,54.8333 265.5,82.5C 176.833,82.5 88.1667,82.5 -0.5,82.5C -0.5,54.8333 -0.5,27.1667 -0.5,-0.5 Z"/></g>
<g><path style="opacity:1" fill="#aeac99" d="M 117.5,13.5 C 137.93,13.6161 146.763,23.9494 144,44.5C 141.923,60.1174 133.09,66.9508 117.5,65C 108.175,61.8689 103.008,55.3689 102,45.5C 98.9722,30.5599 104.139,19.8932 117.5,13.5 Z"/></g>
<g><path style="opacity:1" fill="#aeac98" d="M 17.5,14.5 C 27.1667,14.5 36.8333,14.5 46.5,14.5C 46.5,15.8333 46.5,17.1667 46.5,18.5C 37.5,18.5 28.5,18.5 19.5,18.5C 19.5,32.5 19.5,46.5 19.5,60.5C 28.8333,60.5 38.1667,60.5 47.5,60.5C 47.5,61.5 47.5,62.5 47.5,63.5C 37.1613,63.6665 26.828,63.4998 16.5,63C 16,62.5 15.5,62 15,61.5C 14.3333,46.5 14.3333,31.5 15,16.5C 15.9947,15.9341 16.828,15.2674 17.5,14.5 Z"/></g>
<g><path style="opacity:1" fill="#afad9a" d="M 62.5,14.5 C 63.8221,14.33 64.9887,14.6634 66,15.5C 66.4999,30.4963 66.6666,45.4963 66.5,60.5C 74.1667,60.5 81.8333,60.5 89.5,60.5C 89.5,61.5 89.5,62.5 89.5,63.5C 80.8269,63.6664 72.1603,63.4998 63.5,63C 63,62.5 62.5,62 62,61.5C 61.1835,45.7591 61.3501,30.0924 62.5,14.5 Z"/></g>
<g><path style="opacity:1" fill="#afad9a" d="M 159.5,14.5 C 160.822,14.33 161.989,14.6634 163,15.5C 163.5,30.4963 163.667,45.4963 163.5,60.5C 171.167,60.5 178.833,60.5 186.5,60.5C 186.5,61.5 186.5,62.5 186.5,63.5C 177.827,63.6664 169.16,63.4998 160.5,63C 160,62.5 159.5,62 159,61.5C 158.183,45.7591 158.35,30.0924 159.5,14.5 Z"/></g>
<g><path style="opacity:1" fill="#aba994" d="M 200.5,14.5 C 201.833,14.5 203.167,14.5 204.5,14.5C 204.5,31.1667 204.5,47.8333 204.5,64.5C 203.167,64.5 201.833,64.5 200.5,64.5C 200.5,47.8333 200.5,31.1667 200.5,14.5 Z"/></g>
<g><path style="opacity:1" fill="#afae9a" d="M 233.5,14.5 C 237.857,14.0991 240.357,16.0991 241,20.5C 245.81,35.0945 250.31,49.7611 254.5,64.5C 252.833,64.5 251.167,64.5 249.5,64.5C 245.569,49.0239 241.069,33.6906 236,18.5C 232.272,26.8502 229.439,35.5169 227.5,44.5C 232.167,44.5 236.833,44.5 241.5,44.5C 241.5,45.5 241.5,46.5 241.5,47.5C 236.167,47.5 230.833,47.5 225.5,47.5C 224.009,53.1319 222.675,58.7985 221.5,64.5C 219.833,64.5 218.167,64.5 216.5,64.5C 221.389,47.4986 227.056,30.8319 233.5,14.5 Z"/></g>
<g><path style="opacity:1" fill="#fdfdfd" d="M 116.5,17.5 C 128.271,15.4559 135.771,20.1225 139,31.5C 141.586,42.7334 138.752,52.2334 130.5,60C 118.867,64.4329 111.033,60.5996 107,48.5C 106.333,42.1667 106.333,35.8333 107,29.5C 108.892,24.4471 112.058,20.4471 116.5,17.5 Z"/></g>
<g><path style="opacity:1" fill="#afad99" d="M 22.5,36.5 C 29.8333,36.5 37.1667,36.5 44.5,36.5C 44.5,37.8333 44.5,39.1667 44.5,40.5C 37.1591,40.6663 29.8258,40.4997 22.5,40C 21.3157,38.8545 21.3157,37.6879 22.5,36.5 Z"/></g>
</svg>
