<?xml version="1.0" encoding="UTF-8"?>
<!DOCTYPE svg PUBLIC "-//W3C//DTD SVG 1.1//EN" "http://www.w3.org/Graphics/SVG/1.1/DTD/svg11.dtd">
<svg xmlns="http://www.w3.org/2000/svg" version="1.1" width="259px" height="77px" style="shape-rendering:geometricPrecision; text-rendering:geometricPrecision; image-rendering:optimizeQuality; fill-rule:evenodd; clip-rule:evenodd" xmlns:xlink="http://www.w3.org/1999/xlink">
<g><path style="opacity:1" fill="#807e70" d="M -0.5,-0.5 C 85.8333,-0.5 172.167,-0.5 258.5,-0.5C 258.5,25.1667 258.5,50.8333 258.5,76.5C 172.167,76.5 85.8333,76.5 -0.5,76.5C -0.5,50.8333 -0.5,25.1667 -0.5,-0.5 Z"/></g>
<g><path style="opacity:1" fill="#f3f3f2" d="M 109.5,12.5 C 123.537,10.4297 132.704,16.0964 137,29.5C 139.426,41.5365 136.593,52.0365 128.5,61C 112.382,68.5187 101.215,64.0187 95,47.5C 90.8446,31.737 95.6779,20.0703 109.5,12.5 Z"/></g>
<g><path style="opacity:1" fill="#f7f7f6" d="M 9.5,13.5 C 19.5,13.5 29.5,13.5 39.5,13.5C 39.5,14.8333 39.5,16.1667 39.5,17.5C 30.5,17.5 21.5,17.5 12.5,17.5C 12.5,31.5 12.5,45.5 12.5,59.5C 21.8333,59.5 31.1667,59.5 40.5,59.5C 40.5,60.5 40.5,61.5 40.5,62.5C 30.1613,62.6665 19.828,62.4998 9.5,62C 9,61.5 8.5,61 8,60.5C 7.33333,45.5 7.33333,30.5 8,15.5C 8.71719,14.9558 9.21719,14.2891 9.5,13.5 Z"/></g>
<g><path style="opacity:1" fill="#f6f5f4" d="M 54.5,13.5 C 56.1667,13.5 57.8333,13.5 59.5,13.5C 59.5,28.8333 59.5,44.1667 59.5,59.5C 67.1667,59.5 74.8333,59.5 82.5,59.5C 82.5,60.5 82.5,61.5 82.5,62.5C 73.8269,62.6664 65.1603,62.4998 56.5,62C 56,61.5 55.5,61 55,60.5C 54.5001,44.8369 54.3334,29.1702 54.5,13.5 Z"/></g>
<g><path style="opacity:1" fill="#f6f5f4" d="M 151.5,13.5 C 153.167,13.5 154.833,13.5 156.5,13.5C 156.5,28.8333 156.5,44.1667 156.5,59.5C 164.167,59.5 171.833,59.5 179.5,59.5C 179.5,60.5 179.5,61.5 179.5,62.5C 170.827,62.6664 162.16,62.4998 153.5,62C 153,61.5 152.5,61 152,60.5C 151.5,44.8369 151.333,29.1702 151.5,13.5 Z"/></g>
<g><path style="opacity:1" fill="#fbfbfa" d="M 193.5,13.5 C 194.833,13.5 196.167,13.5 197.5,13.5C 197.5,30.1667 197.5,46.8333 197.5,63.5C 196.167,63.5 194.833,63.5 193.5,63.5C 193.5,46.8333 193.5,30.1667 193.5,13.5 Z"/></g>
<g><path style="opacity:1" fill="#f0efee" d="M 234.5,46.5 C 228.729,45.8872 223.396,46.5539 218.5,48.5C 216.904,53.4564 215.404,58.4564 214,63.5C 211.833,65 210.333,64.5 209.5,62C 214.193,45.5828 219.86,29.5828 226.5,14C 228.167,13.3333 229.833,13.3333 231.5,14C 235.375,23.6208 238.875,33.4541 242,43.5C 244.306,50.0787 245.973,56.7453 247,63.5C 245.667,64.8333 244.333,64.8333 243,63.5C 238.081,48.8898 233.414,34.2232 229,19.5C 225.293,27.1171 222.46,35.1171 220.5,43.5C 225.5,43.5 230.5,43.5 235.5,43.5C 235.737,44.791 235.404,45.791 234.5,46.5 Z"/></g>
<g><path style="opacity:1" fill="#817f70" d="M 109.5,16.5 C 119.718,14.3954 126.884,18.062 131,27.5C 133.66,36.922 132.66,45.922 128,54.5C 121.826,61.0977 114.659,62.2643 106.5,58C 99.9478,49.2451 97.7811,39.4117 100,28.5C 101.892,23.4471 105.058,19.4471 109.5,16.5 Z"/></g>
<g><path style="opacity:1" fill="#f5f5f4" d="M 15.5,35.5 C 22.8409,35.3337 30.1742,35.5003 37.5,36C 38.8333,37 38.8333,38 37.5,39C 29.8406,39.4997 22.1739,39.6664 14.5,39.5C 14.4326,38.0413 14.7659,36.7079 15.5,35.5 Z"/></g>
<g><path style="opacity:1" fill="#b0afa5" d="M 234.5,46.5 C 229.268,47.2099 223.935,47.8765 218.5,48.5C 223.396,46.5539 228.729,45.8872 234.5,46.5 Z"/></g>
</svg>
